<svg width="22" height="22" viewBox="0 0 22 22" fill="none" xmlns="http://www.w3.org/2000/svg">
<path d="M17.001 14.9995H15.9477L15.5743 14.6395C17.1743 12.7729 18.001 10.2262 17.5477 7.51953C16.921 3.81287 13.8277 0.852865 10.0943 0.399532C4.45433 -0.293801 -0.292336 4.45287 0.400997 10.0929C0.85433 13.8262 3.81433 16.9195 7.521 17.5462C10.2277 17.9995 12.7743 17.1729 14.641 15.5729L15.001 15.9462V16.9995L19.0145 21.013C19.5611 21.5597 20.4545 21.5597 21.0011 21.013C21.5478 20.4663 21.5478 19.573 21.0011 19.0263L17.001 14.9995ZM9.001 14.9995C5.681 14.9995 3.001 12.3195 3.001 8.99953C3.001 5.67953 5.681 2.99953 9.001 2.99953C12.321 2.99953 15.001 5.67953 15.001 8.99953C15.001 12.3195 12.321 14.9995 9.001 14.9995Z" fill="#CDCDD0"/>
</svg>
